<svg id="Ebene_1" data-name="Ebene 1" xmlns="http://www.w3.org/2000/svg" viewBox="0 0 394.43 394.43"><defs><style>.cls-1{fill:#0fff71;stroke:#0fff71;stroke-miterlimit:10;stroke-width:8px;}</style></defs><title>trueIcon</title><path class="cls-1" d="M250,56.79C143.29,56.79,56.79,143.29,56.79,250S143.29,443.21,250,443.21,443.21,356.71,443.21,250,356.71,56.79,250,56.79Zm92.41,109.75L254.67,349.79a10,10,0,0,1-6.76,5.42,9.68,9.68,0,0,1-2.26.26,10,10,0,0,1-6.2-2.15l-81-63.9a10,10,0,1,1,12.39-15.7L242,329.88l82.34-172a10,10,0,1,1,18,8.64Z" transform="translate(-52.79 -52.79)"/></svg>