<?xml version="1.0" encoding="utf-8"?>
<!-- Generator: Adobe Illustrator 23.0.6, SVG Export Plug-In . SVG Version: 6.00 Build 0)  -->
<svg version="1.1" id="Ebene_1" xmlns="http://www.w3.org/2000/svg" xmlns:xlink="http://www.w3.org/1999/xlink" x="0px" y="0px"
	 viewBox="0 0 442 263" style="enable-background:new 0 0 442 263;" xml:space="preserve">
<style type="text/css">
	.st0{fill:#FFFFFF;}
	.st1{fill:url(#SVGID_1_);}
	.st2{fill:url(#SVGID_2_);}
	.st3{fill-rule:evenodd;clip-rule:evenodd;fill:#7F7F7F;}
</style>
<g>
	
		<image style="overflow:visible;opacity:0.5;" width="453" height="286" xlink:href="498EAF2.png"  transform="matrix(1 0 0 1 -5 -15)">
	</image>
	<g>
		<path class="st0" d="M13.3,0l184.4,238.4c1.5,1.9,3.2,3.6,5.1,5.1c13,10.4,31.9,8.1,42.1-5.1L429.3,0H13.3z"/>
	</g>
</g>
<g>
	<g id="FINAL_1_">
		
			<linearGradient id="SVGID_1_" gradientUnits="userSpaceOnUse" x1="186.0506" y1="159.059" x2="217.467" y2="120.8202" gradientTransform="matrix(0.9915 0.13 -0.13 0.9915 23.8751 -39.7204)">
			<stop  offset="0" style="stop-color:#1801FF"/>
			<stop  offset="0.1889" style="stop-color:#1801FC"/>
			<stop  offset="0.3545" style="stop-color:#1801F1"/>
			<stop  offset="0.5115" style="stop-color:#1801DF"/>
			<stop  offset="0.6632" style="stop-color:#1801C5"/>
			<stop  offset="0.811" style="stop-color:#1801A5"/>
			<stop  offset="0.9541" style="stop-color:#18017D"/>
			<stop  offset="1" style="stop-color:#18016F"/>
		</linearGradient>
		<path class="st1" d="M210.2,100c0.5,4.5,0.3,8.7-0.5,12.8l0,0c-0.7,2.8-1.7,6.9-4.2,11.8c-3.9,7.5-9,12.3-12.1,14.8
			c-7.8,6.4-16.1,8.8-21.2,9.8c-0.6,0.1-0.6,0.9,0,1c5.2,1.2,10.5,1.4,15.6,0.8c0.1,0,0.2,0,0.3,0c3.4-0.4,6.7-1.2,9.9-2.4
			c0.2-0.1,0.4-0.2,0.6-0.2c4.7-1.8,9-4.3,12.9-7.4c0.9-0.8,1.8-1.5,2.7-2.4c0.9-0.9,1.8-1.8,2.6-2.7c2.6-2.9,4.8-6.2,6.7-9.7
			c0.6-1.1,1.1-2.3,1.6-3.5C220.2,115,215.2,107.5,210.2,100z"/>
		
			<linearGradient id="SVGID_2_" gradientUnits="userSpaceOnUse" x1="220.2609" y1="86.456" x2="263.2342" y2="140.1203" gradientTransform="matrix(0.9915 0.13 -0.13 0.9915 23.8751 -39.7204)">
			<stop  offset="0" style="stop-color:#FFC03C"/>
			<stop  offset="0.6027" style="stop-color:#FF9915"/>
			<stop  offset="1" style="stop-color:#FF8400"/>
		</linearGradient>
		<path class="st2" d="M267.6,132.1c-3.6-7.3-12.5-14.5-20.9-17.8c-2.5-1-4.7-1.6-7.8-3.6c-5-3.3-8.8-8-10.9-13.5
			c-0.5-1.2-0.9-2.5-1.2-3.8c-0.3-1.1-3.2-7.3-1.4-16.7c1.2-6.2,4.1-13.4,8.4-17.9c1.6-1.7,4.4-1.3,5.6,0.7l2,3.5
			c0.2,0.4,0.9,0.4,1.1,0l8.6-16.7c0.2-0.4,0-0.8-0.4-0.9L229.4,39c-0.5-0.2-1,0.4-0.7,0.9l1.1,2c1.3,2.3,0.6,5.2-1.6,6.7
			c-7.1,5-12.9,11.9-16.4,20.4c-0.6,1.5-1.2,3.1-1.7,4.8c-2,6.9-2.3,13.9-1.2,20.5c0.2,1.1,0.4,2.2,0.7,3.4c0.2,0.8,0.4,1.5,0.6,2.3
			c0,0,4.3,13.4,14.9,22.5c0,0,0,0,0,0c0,0,0,0,0,0c4.8,3.9,10.4,7,16.7,8.8c14,4.1,22.6,17.9,20.4,32c-0.1,0.7,0.8,1,1.2,0.4
			C266.9,157.5,273.3,143.6,267.6,132.1z"/>
	</g>
	<path class="st3" d="M243.6,135.1"/>
</g>
</svg>
